<?xml version="1.0" encoding="iso-8859-1"?>
<!-- Generator: Adobe Illustrator 19.0.0, SVG Export Plug-In . SVG Version: 6.00 Build 0)  -->
<svg version="1.1" id="Capa_1" xmlns="http://www.w3.org/2000/svg" xmlns:xlink="http://www.w3.org/1999/xlink" x="0px" y="0px"
	 viewBox="0 0 470 470" style="enable-background:new 0 0 470 470;" xml:space="preserve" fill="#cfb579">
<g>
	<path d="M206.921,268.284c1.919,0,3.839-0.732,5.303-2.197l34.285-34.285c2.929-2.929,2.929-7.678,0-10.606
		c-2.929-2.929-7.678-2.929-10.606,0l-34.285,34.285c-2.929,2.929-2.929,7.678,0,10.606
		C203.083,267.551,205.002,268.284,206.921,268.284z"/>
	<path d="M108.718,366.488c1.919,0,3.839-0.732,5.303-2.197l76.991-76.99c2.929-2.929,2.929-7.678,0-10.606
		c-2.929-2.93-7.678-2.929-10.606,0l-76.991,76.99c-2.929,2.929-2.929,7.678,0,10.606
		C104.879,365.756,106.798,366.488,108.718,366.488z"/>
	<path d="M265.795,329.686c1.919,0,3.839-0.732,5.303-2.197l95.687-95.687c2.929-2.929,2.929-7.678,0-10.606
		c-2.929-2.929-7.678-2.929-10.606,0l-95.687,95.687c-2.929,2.929-2.929,7.678,0,10.606
		C261.957,328.953,263.876,329.686,265.795,329.686z"/>
	<path d="M462.5,113.999H380v-17.5c0-15.164-12.336-27.5-27.5-27.5h-235c-15.164,0-27.5,12.336-27.5,27.5v17.5H7.5
		c-4.142,0-7.5,3.358-7.5,7.5v206.648c0,4.142,3.358,7.5,7.5,7.5h22.96c3.694,31.269,30.053,57.348,61.938,59.727l74.013,5.522
		c15.312,1.147,32.817-7.358,39.872-19.352l12.483-21.223c3.795-6.451,9.712-10.151,16.234-10.151s12.439,3.7,16.234,10.151
		l12.483,21.223c6.63,11.27,22.492,19.456,37.08,19.455c0.936,0,1.87-0.034,2.792-0.103l74.013-5.522
		c31.886-2.379,58.245-28.458,61.938-59.727h22.96c4.142,0,7.5-3.358,7.5-7.5V121.499C470,117.357,466.642,113.999,462.5,113.999z
		 M105,96.499c0-6.893,5.607-12.5,12.5-12.5h235c6.893,0,12.5,5.607,12.5,12.5v50c0,6.893-5.607,12.5-12.5,12.5h-235
		c-6.893,0-12.5-5.607-12.5-12.5V96.499z M455,320.648h-15V196.499c0-4.142-3.358-7.5-7.5-7.5h-335c-4.142,0-7.5,3.358-7.5,7.5
		s3.358,7.5,7.5,7.5H425v124.148c0,26.825-21.763,50.273-48.514,52.269l-74.013,5.522c-9.578,0.721-21.647-4.892-25.827-11.999
		l-12.483-21.223c-6.463-10.987-17.365-17.546-29.163-17.546s-22.7,6.559-29.163,17.546l-12.483,21.223
		c-4.18,7.106-16.246,12.712-25.827,11.999l-74.013-5.522C66.763,378.421,45,354.973,45,328.148V203.999h22.5
		c4.142,0,7.5-3.358,7.5-7.5s-3.358-7.5-7.5-7.5h-30c-4.142,0-7.5,3.358-7.5,7.5v124.148H15V128.999h75v17.5
		c0,15.164,12.336,27.5,27.5,27.5h235c15.164,0,27.5-12.336,27.5-27.5v-17.5h75V320.648z"/>
	<path d="M162.5,143.999c12.407,0,22.5-10.093,22.5-22.5s-10.093-22.5-22.5-22.5s-22.5,10.093-22.5,22.5
		S150.093,143.999,162.5,143.999z M162.5,113.999c4.136,0,7.5,3.364,7.5,7.5s-3.364,7.5-7.5,7.5s-7.5-3.364-7.5-7.5
		S158.364,113.999,162.5,113.999z"/>
	<path d="M242.5,143.999c12.407,0,22.5-10.093,22.5-22.5s-10.093-22.5-22.5-22.5s-22.5,10.093-22.5,22.5
		S230.093,143.999,242.5,143.999z M242.5,113.999c4.136,0,7.5,3.364,7.5,7.5s-3.364,7.5-7.5,7.5s-7.5-3.364-7.5-7.5
		S238.364,113.999,242.5,113.999z"/>
	<circle cx="315" cy="121.499" r="7.5"/>
</g>
<g>
</g>
<g>
</g>
<g>
</g>
<g>
</g>
<g>
</g>
<g>
</g>
<g>
</g>
<g>
</g>
<g>
</g>
<g>
</g>
<g>
</g>
<g>
</g>
<g>
</g>
<g>
</g>
<g>
</g>
</svg>
