<?xml version="1.0" encoding="utf-8"?>
<!-- Generator: Adobe Illustrator 20.0.0, SVG Export Plug-In . SVG Version: 6.00 Build 0)  -->
<svg version="1.1" id="Layer_1" xmlns="http://www.w3.org/2000/svg" xmlns:xlink="http://www.w3.org/1999/xlink" x="0px" y="0px"
	 viewBox="0 0 154 154" enable-background="new 0 0 154 154" xml:space="preserve">
<g>
	<g id="oETfgs.tif_27_">
		<g>
			<g>
				<path fill="#cfb579" d="M84.5,154l-0.1-0.9c-0.4-3.1-1.4-4.9-3.2-5.9c-1.4-0.8-2.8-1.2-4-1.2c0,0-0.1,0-0.1,0
					c-3.8,0-6,2.1-7.3,6.9l-0.2,0.6l-0.7,0c-3.2,0.1-6.4-0.5-9.5-1.7c-0.9-0.3-1.1-1.7-1-2.2c0.2-2-0.4-4-1.8-5.5
					c-1.6-1.7-3.9-2.7-6.3-2.7c-2.7,0.1-4.5,1.5-5.7,4.5l-0.4,0.9l-2.2-1.2c-1-0.5-2.1-1.1-3.1-1.7c-1-0.5-2-1.1-3-1.7l-2.1-1.2
					l0.4-0.8c1.5-2.8,1.8-5,1-7.2c-0.5-1.4-1.4-2.6-2.3-3.3c-3.8-3-7.7-1.4-10.3,0.5l-0.6,0.5l-7.8-8.7l0.7-0.6
					c2.3-1.8,3.5-3.9,3.6-6.4c0-1.6-0.4-3.1-1-4.2c-1.8-3.1-5.3-4-9.7-2.5l-0.8,0.3l-4.5-11l1-0.3c3-0.8,4.6-2.1,5.3-4.2
					c0.5-1.7,0.7-3.5,0.5-4.9c-0.4-3-3.3-5-8-5.5l-0.6-0.1l-0.1-0.6c-0.8-3.1-0.8-6.2-0.2-9.4c0.3-1.2,2.2-1.6,2.2-1.6
					c3.5-0.7,5.6-2.3,6.5-4.9c1-2.8,0.5-5.3-1.4-7.4c-0.7-0.7-1.6-1.3-2.6-2c-0.5-0.4-1.1-0.8-1.7-1.2L3,55.1l4.1-10.3l0.8,0.3
					c3.1,1.1,5.2,1.1,7-0.1c1.1-0.7,2.5-1.8,3.2-3.2c1.6-3,0.5-6.6-3-9.4l-0.7-0.6l7.8-9.4l0.7,0.6c2.1,2,4,2.8,6.1,2.3
					c1.7-0.4,3.4-1.1,4.6-2.1c2.7-2.1,3-5.4,1-9.8l-0.3-0.7l9.8-5.7L44.4,8c1.2,2.4,2.7,3.7,4.9,4.2c2.3,0.6,4.8-0.1,6.7-1.7
					c1.9-1.7,2.9-4.1,2.7-6.5c-0.1-0.8,0.5-2.1,1.4-2.3c2.2-0.5,4.4-0.9,6.5-1.3L69.3,0l0.3,0.7c2,5.5,4.1,7.1,8.6,6.9
					c3.1-0.2,5.5-2.6,6.4-6.8L84.7,0l2.7,0.5c2.2,0.4,4.5,0.8,6.8,1.3c1,0.2,1.3,1.7,1.3,2.2c-0.1,3.5,2.1,7.1,5,8.2
					c3.1,1.1,6.9-0.1,9.1-2.9c1-1.2,2-1.4,3.3-0.6c1.8,1.1,3.7,2.2,5.7,3.4c1.3,0.7,1.6,1.6,0.9,2.9c-1.6,3.3-1,6.4,1.4,8.4
					c3.4,2.9,6.1,3,9.6,0.7c0.6-0.4,1.9-0.6,2.5,0.1c1.6,1.7,3.1,3.4,4.7,5.2l2,2.2l-0.7,0.6c-3.7,3-4.4,6.2-2.3,10.1
					c1.8,3.3,4.2,4.1,10.2,3.4l0.7-0.1l0.8,2.5c0.7,2,1.4,4.1,2,6.2c0.3,1-0.9,2-1.3,2.3c-2.8,1.7-4.3,3.8-4.6,6.6
					c-0.4,4,3.3,7.5,7,8c1.3,0.2,2.6,0.6,2.5,2.8c-0.1,2.2-0.1,4.5,0,6.7c0,1.4-0.7,2.2-2.1,2.2c-3.2,0.1-6.7,2.9-7.3,5.8
					c-0.6,3.2,1.4,6.9,4.6,8.4c0.6,0.3,2,0.9,1.3,2.8c-0.4,1-0.7,2.1-1.1,3.1c-0.4,1.2-0.8,2.5-1.3,3.7c-0.3,0.8-1.4,1.4-2.2,1.3
					c-4.8-0.9-7.3,0.1-9.4,3.9c-1.4,2.7-1.2,6.9,2.2,9.6c0.2,0.1,0.3,0.3,0.4,0.5c0,0.1,0.1,0.1,0.1,0.3l0.3,0.6l-7.5,8.1l-0.6-0.4
					c-4.1-2.8-7.2-2.8-10.5-0.1c-2.6,2.2-2.8,5.4-0.6,10l0.4,0.7l-10,5.6l-0.4-0.7c-2.7-4.1-5.3-5.3-8.9-4.2
					c-4.3,1.3-5.7,3.7-5.7,9.4l0,0.7L84.5,154z M77.1,144.2C77.1,144.2,77.1,144.2,77.1,144.2c2.1,0,4,0.9,4.9,1.4
					c2.7,1.5,3.6,4.1,3.9,6.3l8-1.5c0.1-5.9,2.1-8.9,6.9-10.4c4.1-1.3,7.4,0,10.4,4.2l7.2-4c-2.2-5-1.7-8.7,1.4-11.4
					c3.7-3.1,7.6-3.3,12-0.5l5.5-6c-3.9-3.3-4.1-8.4-2.4-11.6c2.4-4.3,5.7-5.8,11.1-4.8c0.1,0,0.3-0.2,0.4-0.2
					c0.4-1.1,0.8-2.4,1.2-3.6c0.4-1,0.7-2.1,1.1-3.1c0.1-0.2,0.1-0.3,0.1-0.4c0,0-0.1-0.1-0.5-0.2c-4-1.8-6.4-6.3-5.6-10.3
					c0.7-3.6,4.9-7,8.9-7.2c0.3,0,0.4-0.1,0.5-0.1c0,0,0-0.1,0-0.4c-0.1-2.2-0.1-4.5,0-6.8c0-0.8,0-0.9-1-1c-4.5-0.6-9.1-4.8-8.5-10
					c0.4-3.3,2.2-5.9,5.4-7.9c0.2-0.1,0.4-0.4,0.5-0.5c-0.6-2-1.2-4-1.9-5.9l-0.4-1.2c-6.3,0.7-9.2-0.4-11.3-4.3
					c-2.3-4.4-1.7-8.3,2.1-11.7l-0.8-0.9c-1.6-1.7-3-3.4-4.6-5c-0.1,0-0.3,0-0.3,0.1c-4.1,2.8-7.6,2.6-11.7-0.8
					c-3.1-2.6-3.8-6.5-1.9-10.5c0.1-0.3,0.1-0.4,0.1-0.4c0,0-0.1-0.1-0.4-0.2c-2.1-1.2-4-2.3-5.8-3.4c-0.5-0.3-0.6-0.3-1,0.2
					c-2.7,3.4-7.2,4.8-11,3.5c-3.6-1.3-6.2-5.5-6.2-9.8c0-0.1-0.1-0.3-0.1-0.5c-2.2-0.5-4.4-0.9-6.5-1.3L86,2
					c-1.2,4.4-4.1,7.1-7.8,7.3C73.1,9.6,70.3,7.6,68.1,2l-1.2,0.2c-2.1,0.4-4.2,0.8-6.3,1.2c-0.1,0.1-0.2,0.4-0.2,0.5
					c0.3,2.9-1,5.9-3.3,7.9c-2.3,2-5.4,2.8-8.2,2.1c-2.4-0.6-4.2-2-5.6-4.3l-6.9,4c2.5,6.1,0.4,9.4-1.8,11.2c-1.4,1.1-3.3,2-5.3,2.4
					c-2.4,0.5-4.7-0.2-7-2.2l-5.5,6.6c3.6,3.3,4.6,7.4,2.7,11c-0.9,1.7-2.5,3-3.8,3.8c-2.6,1.7-5.4,1.3-7.7,0.6l-2.9,7.4
					c0.4,0.3,0.8,0.5,1.1,0.8c1.1,0.8,2.1,1.4,2.9,2.3c2.3,2.5,2.9,5.7,1.7,9.1c-1.1,3.2-3.7,5.2-7.8,6.1c-0.4,0.1-0.8,0.3-0.9,0.4
					c-0.5,2.6-0.5,5.3,0,7.9c5.1,0.7,8.5,3.3,9,7c0.2,1.7,0,3.7-0.6,5.6c-0.8,2.4-2.6,4.1-5.6,5.1l3.1,7.7c4.9-1.3,8.8-0.1,11,3.6
					c0.8,1.3,1.2,3.2,1.2,5.1c0,2.7-1.2,5.1-3.5,7.2l5.6,6.2c4.2-2.7,8.4-2.8,11.8,0c1.1,0.9,2.2,2.4,2.8,4c0.9,2.4,0.7,5-0.7,7.9
					l0.6,0.4c1,0.6,2,1.2,3,1.7c1,0.6,2,1.1,3.1,1.6l0.5,0.3c1.5-3.1,3.8-4.6,6.9-4.7c3,0,5.8,1.1,7.7,3.2c1.7,1.9,2.5,4.4,2.2,6.9
					c0,0.1,0,0.3,0.1,0.5c2.6,1,5.3,1.5,8,1.5C69.8,146.6,72.6,144.2,77.1,144.2z M76.8,135.2c0,0-0.1,0-0.1,0
					c-15.4,0-29.8-6-40.5-16.9c-10.7-10.9-16.6-25.4-16.6-41c0-15.4,6.1-29.9,17.2-40.7C47.9,25.6,62.6,19.8,78,20
					c31.4,0.6,56.6,26.9,56,58.7C133.5,109.9,107.9,135.2,76.8,135.2z M76.9,21.8c-14.6,0-28.4,5.7-39,16
					C27.3,48.3,21.4,62.4,21.3,77.3c0,15.1,5.7,29.2,16.1,39.8c10.4,10.6,24.4,16.4,39.3,16.4l0,0c0,0,0.1,0,0.1,0
					c30.1,0,55-24.6,55.5-54.8c0.5-30.8-23.8-56.3-54.3-56.9C77.7,21.8,77.3,21.8,76.9,21.8z"/>
			</g>
		</g>
	</g>
	<g>
		<g>
			<g>
				<path fill-rule="evenodd" clip-rule="evenodd" fill="#cfb579" d="M91.6,76.1h-1.7c-0.4-1.5-0.9-2.9-1.7-4.2l1.3-1.3
					c0.4-0.4,0.4-1.2,0-1.6l-3.2-3.2c-0.4-0.4-1.2-0.4-1.6,0l-1.3,1.3c-1.3-0.8-2.7-1.4-4.2-1.7v-1.7c0-0.6-0.5-1.1-1.1-1.1h-4.5
					c-0.6,0-1.1,0.5-1.1,1.1v1.7c-1.5,0.4-3,0.9-4.3,1.8l-1.2-1.2c-0.4-0.4-1.2-0.4-1.6,0l-3.2,3.2c-0.4,0.4-0.4,1.2,0,1.6l1.2,1.2
					c-0.8,1.3-1.3,2.7-1.7,4.2H60c-0.6,0-1.1,0.5-1.1,1.1v4.5c0,0.6,0.5,1.1,1.1,1.1h1.6c0.4,1.5,0.9,3,1.7,4.3l-1.2,1.2
					c-0.4,0.4-0.4,1.2,0,1.6l3.2,3.2c0.4,0.4,1.2,0.4,1.6,0l1.2-1.2c1.3,0.8,2.7,1.4,4.3,1.8v1.7c0,0.6,0.5,1.1,1.1,1.1H78
					c0.6,0,1.1-0.5,1.1-1.1v-1.7c1.5-0.4,2.9-0.9,4.2-1.7l1.3,1.3c0.4,0.4,1.2,0.4,1.6,0l3.2-3.2c0.4-0.4,0.4-1.2,0-1.6l-1.3-1.3
					c0.8-1.3,1.4-2.8,1.8-4.3h1.7c0.6,0,1.1-0.5,1.1-1.1v-4.5C92.7,76.6,92.2,76.1,91.6,76.1z M75.8,86.6c-3.8,0-7-3.1-7-7
					c0-3.9,3.1-7,7-7c3.8,0,7,3.1,7,7C82.8,83.4,79.7,86.6,75.8,86.6z"/>
			</g>
		</g>
		<g>
			<g>
				<path fill="#cfb579" d="M98.4,90.4L98,91.2c-2.2,10.3-11.6,17.3-22.3,17.3c-5.6,0-10.9-2.3-15-5.9l5.2-3.7l-19.2-9l1.8,20.7
					l4.4-3c6,6,14.1,9.5,22.8,9.5c15.6,0,28.9-10.1,31.6-25.2l0.4-1.6H98.4z"/>
			</g>
		</g>
		<g>
			<g>
				<path fill="#cfb579" d="M53.3,67.9c2.2-10.3,11.6-17.8,22.3-17.8c5.6,0,10.9,2,15,5.6l-5.2,3.5l19.2,7.8l-1.8-20.2l-4.4,3.2
					c-6-6-14.1-9.4-22.8-9.4C60,40.8,46.7,52,44.1,67.1l-0.4,2.6H53L53.3,67.9z"/>
			</g>
		</g>
		<g>
			<g>
				<path fill="#cfb579" d="M36.3,82.9c-0.3,0.2-0.6,0.3-1,0.4c-0.4,0.1-0.8,0.1-1.2,0.1c-0.5,0-1-0.1-1.4-0.2
					c-0.4-0.2-0.8-0.4-1.2-0.7c-0.3-0.3-0.6-0.8-0.8-1.3c-0.2-0.5-0.3-1.2-0.3-2c0-0.8,0.1-1.5,0.3-2c0.2-0.5,0.5-1,0.9-1.3
					c0.4-0.3,0.8-0.6,1.2-0.7c0.4-0.1,0.9-0.2,1.3-0.2c0.5,0,0.9,0,1.2,0.1c0.3,0.1,0.6,0.1,0.8,0.2l-0.3,1.4
					c-0.2-0.1-0.4-0.1-0.6-0.2c-0.2,0-0.5-0.1-0.9-0.1c-0.7,0-1.2,0.2-1.6,0.7c-0.4,0.5-0.6,1.2-0.6,2.2c0,0.4,0,0.8,0.1,1.2
					c0.1,0.4,0.2,0.7,0.4,0.9c0.2,0.2,0.4,0.4,0.7,0.6c0.3,0.1,0.6,0.2,1,0.2c0.4,0,0.7,0,0.9-0.1c0.2-0.1,0.5-0.2,0.6-0.3
					L36.3,82.9z"/>
			</g>
			<g>
				<path fill="#cfb579" d="M37.5,75c0.2,0,0.4-0.1,0.6-0.1c0.2,0,0.4,0,0.6-0.1c0.2,0,0.4,0,0.6,0c0.2,0,0.4,0,0.5,0
					c0.4,0,0.8,0,1.1,0.1c0.4,0.1,0.7,0.2,1,0.4c0.3,0.2,0.5,0.4,0.7,0.7c0.2,0.3,0.3,0.7,0.3,1.1c0,0.7-0.2,1.2-0.5,1.7
					c-0.3,0.4-0.7,0.7-1.3,0.9l0.6,0.4l1.9,3.2h-1.9L40,80l-0.8-0.2v3.4h-1.6V75z M40,76.3c-0.2,0-0.3,0-0.5,0c-0.2,0-0.3,0-0.4,0
					v2.4h0.7c0.4,0,0.8-0.1,1.1-0.3c0.3-0.2,0.4-0.5,0.4-1c0-0.4-0.1-0.6-0.3-0.8C40.8,76.4,40.4,76.3,40,76.3z"/>
			</g>
			<g>
				<path fill="#cfb579" d="M51.3,78.9l0.2-1.6h-0.1l-0.5,1.3l-1.8,3.1h-0.5l-1.8-3.1l-0.5-1.3h-0.1l0.2,1.6v4.3h-1.5V75h1.5
					l2.2,3.8l0.4,0.9h0l0.4-1l2.1-3.8h1.5v8.3h-1.6V78.9z"/>
			</g>
		</g>
		<g>
			<g>
				<path fill="#cfb579" d="M96.8,75h4.9v1.4h-3.3v1.9h3v1.4h-3v2h3.3v1.4h-4.9V75z"/>
			</g>
			<g>
				<path fill="#cfb579" d="M103.3,75c0.2,0,0.4-0.1,0.6-0.1c0.2,0,0.4,0,0.6-0.1c0.2,0,0.4,0,0.6,0c0.2,0,0.4,0,0.5,0
					c0.4,0,0.8,0,1.1,0.1c0.4,0.1,0.7,0.2,1,0.4c0.3,0.2,0.5,0.4,0.7,0.7c0.2,0.3,0.3,0.7,0.3,1.1c0,0.7-0.2,1.2-0.5,1.7
					c-0.3,0.4-0.7,0.7-1.3,0.9l0.6,0.4l1.9,3.2h-1.9l-1.9-3.2l-0.8-0.2v3.4h-1.6V75z M105.7,76.3c-0.2,0-0.3,0-0.5,0
					c-0.2,0-0.3,0-0.4,0v2.4h0.7c0.4,0,0.8-0.1,1.1-0.3c0.3-0.2,0.4-0.5,0.4-1c0-0.4-0.1-0.6-0.3-0.8
					C106.5,76.4,106.1,76.3,105.7,76.3z"/>
			</g>
			<g>
				<path fill="#cfb579" d="M110.6,75c0.3-0.1,0.7-0.1,1.1-0.1c0.4,0,0.8-0.1,1.2-0.1c0.4,0,0.8,0,1.2,0.1c0.4,0.1,0.8,0.2,1.1,0.4
					c0.3,0.2,0.6,0.5,0.8,0.8c0.2,0.4,0.3,0.8,0.3,1.4c0,0.5-0.1,1-0.3,1.3c-0.2,0.4-0.4,0.7-0.7,0.9c-0.3,0.2-0.6,0.4-1,0.5
					c-0.4,0.1-0.8,0.2-1.2,0.2c0,0-0.1,0-0.2,0c-0.1,0-0.2,0-0.3,0c-0.1,0-0.2,0-0.3,0c-0.1,0-0.2,0-0.2,0v2.8h-1.6V75z M113,76.2
					c-0.2,0-0.3,0-0.4,0c-0.1,0-0.3,0-0.3,0V79c0,0,0.1,0,0.1,0c0.1,0,0.1,0,0.2,0c0.1,0,0.1,0,0.2,0c0.1,0,0.1,0,0.1,0
					c0.2,0,0.4,0,0.6-0.1c0.2,0,0.4-0.1,0.6-0.2c0.2-0.1,0.3-0.3,0.4-0.4s0.1-0.4,0.1-0.7c0-0.3,0-0.5-0.1-0.6
					c-0.1-0.2-0.2-0.3-0.4-0.4c-0.2-0.1-0.3-0.2-0.5-0.2C113.4,76.3,113.2,76.2,113,76.2z"/>
			</g>
		</g>
	</g>
</g>
</svg>
