<?xml version="1.0" encoding="utf-8"?>
<!-- Svg Vector Icons : http://www.onlinewebfonts.com/icon -->
<!DOCTYPE svg PUBLIC "-//W3C//DTD SVG 1.1//EN" "http://www.w3.org/Graphics/SVG/1.1/DTD/svg11.dtd">
<svg version="1.1" xmlns="http://www.w3.org/2000/svg" xmlns:xlink="http://www.w3.org/1999/xlink" x="0px" y="0px" viewBox="0 0 1000 1000" enable-background="new 0 0 1000 1000" xml:space="preserve">
<metadata> Svg Vector Icons : http://www.onlinewebfonts.com/icon </metadata>
<g><path fill="#55b236" d="M745,304c0,34.8-5.2,63.4-15.8,85.7L555,760c-5.1,10.5-12.7,18.8-22.7,24.9c-10,6.1-20.8,9.1-32.3,9.1c-11.5,0-22.2-3-32.3-9.1c-10-6.1-17.4-14.4-22.2-24.9L270.8,389.7C260.2,367.3,255,338.8,255,304c0-67.6,23.9-125.4,71.8-173.2C374.7,82.9,432.4,59,500,59c67.6,0,125.4,23.9,173.2,71.8C721.1,178.6,745,236.4,745,304z M586.6,390.6c23.9-23.9,35.9-52.8,35.9-86.6c0-33.8-12-62.7-35.9-86.6c-23.9-23.9-52.8-35.9-86.6-35.9c-33.8,0-62.7,12-86.6,35.9c-23.9,23.9-35.9,52.8-35.9,86.6c0,33.8,12,62.7,35.9,86.6c23.9,23.9,52.8,35.9,86.6,35.9C533.8,426.5,562.7,414.5,586.6,390.6z M794,647H662.3l-23,49h128.5l130.7,196H101.6l130.7-196h128.9L338,647H206L10,941h980L794,647z"/></g>
</svg>